<svg id="Layer_1" data-name="Layer 1" xmlns="http://www.w3.org/2000/svg" viewBox="0 0 768 767">
<defs>
<style>.cls-1{fill:#fff;}</style>
</defs>
<path class="cls-1" d="M768,718.06a38.32,38.32,0,1,1,0-76.63h0V620.26h0a38.32,38.32,0,1,1,0-76.63h0V522.47h0a38.32,38.32,0,1,1,0-76.63h0v-23h0a38.32,38.32,0,1,1,0-76.63h0V326.09h0a38.32,38.32,0,1,1,0-76.63h0V226.82h0a38.32,38.32,0,1,1,0-76.63h0V127.54h0a38.32,38.32,0,1,1,0-76.63h0V.48H717.57a38.32,38.32,0,1,1-76.63,0H618.3a38.32,38.32,0,1,1-76.64,0H519a38.32,38.32,0,1,1-76.63,0H422.32A38.32,38.32,0,0,1,384,38.8,38.31,38.31,0,0,1,345.69.48H322.64A38.32,38.32,0,1,1,246,.48H224.85a38.32,38.32,0,1,1-76.63,0H127.06A38.32,38.32,0,0,1,88.74,38.8,38.31,38.31,0,0,1,50.43.48H0V50.91A38.32,38.32,0,0,1,38.31,89.23,38.31,38.31,0,0,1,0,127.54v22.65A38.31,38.31,0,0,1,38.31,188.5,38.32,38.32,0,0,1,0,226.82v22.64a38.32,38.32,0,0,1,38.31,38.32A38.31,38.31,0,0,1,0,326.09v20.08a38.31,38.31,0,0,1,38.31,38.31A38.32,38.32,0,0,1,0,422.8v23a38.32,38.32,0,0,1,38.31,38.32A38.31,38.31,0,0,1,0,522.47v21.16A38.32,38.32,0,0,1,38.31,582,38.31,38.31,0,0,1,0,620.26v21.17a38.31,38.31,0,0,1,38.31,38.31A38.32,38.32,0,0,1,0,718.06v50.42H50.43a38.32,38.32,0,0,1,76.63,0h21.16a38.32,38.32,0,0,1,76.63,0H246a38.32,38.32,0,0,1,76.63,0h23.05a38.32,38.32,0,0,1,76.63,0h20.07a38.32,38.32,0,0,1,76.63,0h22.64a38.32,38.32,0,0,1,76.64,0h22.64a38.32,38.32,0,0,1,76.63,0H768V718.06Z"/><path class="cls-1" d="M768,718.06a38.32,38.32,0,1,1,0-76.63h0V620.26h0a38.32,38.32,0,1,1,0-76.63h0V522.47h0a38.32,38.32,0,1,1,0-76.63h0v-23h0a38.32,38.32,0,1,1,0-76.63h0V326.09h0a38.32,38.32,0,1,1,0-76.63h0V226.82h0a38.32,38.32,0,1,1,0-76.63h0V127.54h0a38.32,38.32,0,1,1,0-76.63h0V.48H717.57a38.32,38.32,0,1,1-76.63,0H618.3a38.32,38.32,0,1,1-76.64,0H519a38.32,38.32,0,1,1-76.63,0H422.32A38.32,38.32,0,0,1,384,38.8,38.31,38.31,0,0,1,345.69.48H322.64A38.32,38.32,0,1,1,246,.48H224.85a38.32,38.32,0,1,1-76.63,0H127.06A38.32,38.32,0,0,1,88.74,38.8,38.31,38.31,0,0,1,50.43.48H0V50.91A38.32,38.32,0,0,1,38.31,89.23,38.31,38.31,0,0,1,0,127.54v22.65A38.31,38.31,0,0,1,38.31,188.5,38.32,38.32,0,0,1,0,226.82v22.64a38.32,38.32,0,0,1,38.31,38.32A38.31,38.31,0,0,1,0,326.09v20.08a38.31,38.31,0,0,1,38.31,38.31A38.32,38.32,0,0,1,0,422.8v23a38.32,38.32,0,0,1,38.31,38.32A38.31,38.31,0,0,1,0,522.47v21.16A38.32,38.32,0,0,1,38.31,582,38.31,38.31,0,0,1,0,620.26v21.17a38.31,38.31,0,0,1,38.31,38.31A38.32,38.32,0,0,1,0,718.06v50.42H50.43a38.32,38.32,0,0,1,76.63,0h21.16a38.32,38.32,0,0,1,76.63,0H246a38.32,38.32,0,0,1,76.63,0h23.05a38.32,38.32,0,0,1,76.63,0h20.07a38.32,38.32,0,0,1,76.63,0h22.64a38.32,38.32,0,0,1,76.64,0h22.64a38.32,38.32,0,0,1,76.63,0H768V718.06Z"/>
</svg>